<?xml version="1.0" encoding="UTF-8" standalone="no"?>
<!DOCTYPE svg PUBLIC "-//W3C//DTD SVG 1.1//EN"
 "http://www.w3.org/Graphics/SVG/1.1/DTD/svg11.dtd">
<!-- Generated by graphviz version 2.40.1 (20161225.0304)
 -->
<!-- Title: G Pages: 1 -->
<svg width="463pt" height="2711pt"
 viewBox="0.00 0.00 463.00 2711.00" xmlns="http://www.w3.org/2000/svg" xmlns:xlink="http://www.w3.org/1999/xlink">
<g id="graph0" class="graph" transform="scale(1 1) rotate(0) translate(4 2707)">
<title>G</title>
<polygon fill="#ffffff" stroke="transparent" points="-4,4 -4,-2707 459,-2707 459,4 -4,4"/>
<!-- 48168320080 -->
<g id="node1" class="node">
<title>48168320080</title>
<polygon fill="none" stroke="#000000" points="72,-2656.5 72,-2702.5 383,-2702.5 383,-2656.5 72,-2656.5"/>
<text text-anchor="middle" x="136.5" y="-2675.8" font-family="Times,serif" font-size="14.00" fill="#000000">input_1: InputLayer</text>
<polyline fill="none" stroke="#000000" points="201,-2656.5 201,-2702.5 "/>
<text text-anchor="middle" x="229" y="-2687.3" font-family="Times,serif" font-size="14.00" fill="#000000">input:</text>
<polyline fill="none" stroke="#000000" points="201,-2679.5 257,-2679.5 "/>
<text text-anchor="middle" x="229" y="-2664.3" font-family="Times,serif" font-size="14.00" fill="#000000">output:</text>
<polyline fill="none" stroke="#000000" points="257,-2656.5 257,-2702.5 "/>
<text text-anchor="middle" x="320" y="-2687.3" font-family="Times,serif" font-size="14.00" fill="#000000">(None, 256, 256, 1)</text>
<polyline fill="none" stroke="#000000" points="257,-2679.5 383,-2679.5 "/>
<text text-anchor="middle" x="320" y="-2664.3" font-family="Times,serif" font-size="14.00" fill="#000000">(None, 256, 256, 1)</text>
</g>
<!-- 48168320248 -->
<g id="node2" class="node">
<title>48168320248</title>
<polygon fill="none" stroke="#000000" points="73,-2573.5 73,-2619.5 382,-2619.5 382,-2573.5 73,-2573.5"/>
<text text-anchor="middle" x="133" y="-2592.8" font-family="Times,serif" font-size="14.00" fill="#000000">conv1_1: Conv2D</text>
<polyline fill="none" stroke="#000000" points="193,-2573.5 193,-2619.5 "/>
<text text-anchor="middle" x="221" y="-2604.3" font-family="Times,serif" font-size="14.00" fill="#000000">input:</text>
<polyline fill="none" stroke="#000000" points="193,-2596.5 249,-2596.5 "/>
<text text-anchor="middle" x="221" y="-2581.3" font-family="Times,serif" font-size="14.00" fill="#000000">output:</text>
<polyline fill="none" stroke="#000000" points="249,-2573.5 249,-2619.5 "/>
<text text-anchor="middle" x="315.5" y="-2604.3" font-family="Times,serif" font-size="14.00" fill="#000000">(None, 256, 256, 1)</text>
<polyline fill="none" stroke="#000000" points="249,-2596.5 382,-2596.5 "/>
<text text-anchor="middle" x="315.5" y="-2581.3" font-family="Times,serif" font-size="14.00" fill="#000000">(None, 256, 256, 64)</text>
</g>
<!-- 48168320080&#45;&gt;48168320248 -->
<g id="edge1" class="edge">
<title>48168320080&#45;&gt;48168320248</title>
<path fill="none" stroke="#000000" d="M227.5,-2656.3799C227.5,-2648.1745 227.5,-2638.7679 227.5,-2629.8786"/>
<polygon fill="#000000" stroke="#000000" points="231.0001,-2629.784 227.5,-2619.784 224.0001,-2629.784 231.0001,-2629.784"/>
</g>
<!-- 48168320360 -->
<g id="node3" class="node">
<title>48168320360</title>
<polygon fill="none" stroke="#000000" points="73,-2490.5 73,-2536.5 382,-2536.5 382,-2490.5 73,-2490.5"/>
<text text-anchor="middle" x="133" y="-2509.8" font-family="Times,serif" font-size="14.00" fill="#000000">conv1_2: Conv2D</text>
<polyline fill="none" stroke="#000000" points="193,-2490.5 193,-2536.5 "/>
<text text-anchor="middle" x="221" y="-2521.3" font-family="Times,serif" font-size="14.00" fill="#000000">input:</text>
<polyline fill="none" stroke="#000000" points="193,-2513.5 249,-2513.5 "/>
<text text-anchor="middle" x="221" y="-2498.3" font-family="Times,serif" font-size="14.00" fill="#000000">output:</text>
<polyline fill="none" stroke="#000000" points="249,-2490.5 249,-2536.5 "/>
<text text-anchor="middle" x="315.5" y="-2521.3" font-family="Times,serif" font-size="14.00" fill="#000000">(None, 256, 256, 64)</text>
<polyline fill="none" stroke="#000000" points="249,-2513.5 382,-2513.5 "/>
<text text-anchor="middle" x="315.5" y="-2498.3" font-family="Times,serif" font-size="14.00" fill="#000000">(None, 128, 128, 64)</text>
</g>
<!-- 48168320248&#45;&gt;48168320360 -->
<g id="edge2" class="edge">
<title>48168320248&#45;&gt;48168320360</title>
<path fill="none" stroke="#000000" d="M227.5,-2573.3799C227.5,-2565.1745 227.5,-2555.7679 227.5,-2546.8786"/>
<polygon fill="#000000" stroke="#000000" points="231.0001,-2546.784 227.5,-2536.784 224.0001,-2546.784 231.0001,-2546.784"/>
</g>
<!-- 48168566680 -->
<g id="node4" class="node">
<title>48168566680</title>
<polygon fill="none" stroke="#000000" points="0,-2407.5 0,-2453.5 455,-2453.5 455,-2407.5 0,-2407.5"/>
<text text-anchor="middle" x="133" y="-2426.8" font-family="Times,serif" font-size="14.00" fill="#000000">batch_normalization_1: BatchNormalization</text>
<polyline fill="none" stroke="#000000" points="266,-2407.5 266,-2453.5 "/>
<text text-anchor="middle" x="294" y="-2438.3" font-family="Times,serif" font-size="14.00" fill="#000000">input:</text>
<polyline fill="none" stroke="#000000" points="266,-2430.5 322,-2430.5 "/>
<text text-anchor="middle" x="294" y="-2415.3" font-family="Times,serif" font-size="14.00" fill="#000000">output:</text>
<polyline fill="none" stroke="#000000" points="322,-2407.5 322,-2453.5 "/>
<text text-anchor="middle" x="388.5" y="-2438.3" font-family="Times,serif" font-size="14.00" fill="#000000">(None, 128, 128, 64)</text>
<polyline fill="none" stroke="#000000" points="322,-2430.5 455,-2430.5 "/>
<text text-anchor="middle" x="388.5" y="-2415.3" font-family="Times,serif" font-size="14.00" fill="#000000">(None, 128, 128, 64)</text>
</g>
<!-- 48168320360&#45;&gt;48168566680 -->
<g id="edge3" class="edge">
<title>48168320360&#45;&gt;48168566680</title>
<path fill="none" stroke="#000000" d="M227.5,-2490.3799C227.5,-2482.1745 227.5,-2472.7679 227.5,-2463.8786"/>
<polygon fill="#000000" stroke="#000000" points="231.0001,-2463.784 227.5,-2453.784 224.0001,-2463.784 231.0001,-2463.784"/>
</g>
<!-- 48168674808 -->
<g id="node5" class="node">
<title>48168674808</title>
<polygon fill="none" stroke="#000000" points="69.5,-2324.5 69.5,-2370.5 385.5,-2370.5 385.5,-2324.5 69.5,-2324.5"/>
<text text-anchor="middle" x="129.5" y="-2343.8" font-family="Times,serif" font-size="14.00" fill="#000000">conv2_1: Conv2D</text>
<polyline fill="none" stroke="#000000" points="189.5,-2324.5 189.5,-2370.5 "/>
<text text-anchor="middle" x="217.5" y="-2355.3" font-family="Times,serif" font-size="14.00" fill="#000000">input:</text>
<polyline fill="none" stroke="#000000" points="189.5,-2347.5 245.5,-2347.5 "/>
<text text-anchor="middle" x="217.5" y="-2332.3" font-family="Times,serif" font-size="14.00" fill="#000000">output:</text>
<polyline fill="none" stroke="#000000" points="245.5,-2324.5 245.5,-2370.5 "/>
<text text-anchor="middle" x="315.5" y="-2355.3" font-family="Times,serif" font-size="14.00" fill="#000000">(None, 128, 128, 64)</text>
<polyline fill="none" stroke="#000000" points="245.5,-2347.5 385.5,-2347.5 "/>
<text text-anchor="middle" x="315.5" y="-2332.3" font-family="Times,serif" font-size="14.00" fill="#000000">(None, 128, 128, 128)</text>
</g>
<!-- 48168566680&#45;&gt;48168674808 -->
<g id="edge4" class="edge">
<title>48168566680&#45;&gt;48168674808</title>
<path fill="none" stroke="#000000" d="M227.5,-2407.3799C227.5,-2399.1745 227.5,-2389.7679 227.5,-2380.8786"/>
<polygon fill="#000000" stroke="#000000" points="231.0001,-2380.784 227.5,-2370.784 224.0001,-2380.784 231.0001,-2380.784"/>
</g>
<!-- 48169072680 -->
<g id="node6" class="node">
<title>48169072680</title>
<polygon fill="none" stroke="#000000" points="69.5,-2241.5 69.5,-2287.5 385.5,-2287.5 385.5,-2241.5 69.5,-2241.5"/>
<text text-anchor="middle" x="129.5" y="-2260.8" font-family="Times,serif" font-size="14.00" fill="#000000">conv2_2: Conv2D</text>
<polyline fill="none" stroke="#000000" points="189.5,-2241.5 189.5,-2287.5 "/>
<text text-anchor="middle" x="217.5" y="-2272.3" font-family="Times,serif" font-size="14.00" fill="#000000">input:</text>
<polyline fill="none" stroke="#000000" points="189.5,-2264.5 245.5,-2264.5 "/>
<text text-anchor="middle" x="217.5" y="-2249.3" font-family="Times,serif" font-size="14.00" fill="#000000">output:</text>
<polyline fill="none" stroke="#000000" points="245.5,-2241.5 245.5,-2287.5 "/>
<text text-anchor="middle" x="315.5" y="-2272.3" font-family="Times,serif" font-size="14.00" fill="#000000">(None, 128, 128, 128)</text>
<polyline fill="none" stroke="#000000" points="245.5,-2264.5 385.5,-2264.5 "/>
<text text-anchor="middle" x="315.5" y="-2249.3" font-family="Times,serif" font-size="14.00" fill="#000000">(None, 64, 64, 128)</text>
</g>
<!-- 48168674808&#45;&gt;48169072680 -->
<g id="edge5" class="edge">
<title>48168674808&#45;&gt;48169072680</title>
<path fill="none" stroke="#000000" d="M227.5,-2324.3799C227.5,-2316.1745 227.5,-2306.7679 227.5,-2297.8786"/>
<polygon fill="#000000" stroke="#000000" points="231.0001,-2297.784 227.5,-2287.784 224.0001,-2297.784 231.0001,-2297.784"/>
</g>
<!-- 48170246040 -->
<g id="node7" class="node">
<title>48170246040</title>
<polygon fill="none" stroke="#000000" points="3.5,-2158.5 3.5,-2204.5 451.5,-2204.5 451.5,-2158.5 3.5,-2158.5"/>
<text text-anchor="middle" x="136.5" y="-2177.8" font-family="Times,serif" font-size="14.00" fill="#000000">batch_normalization_2: BatchNormalization</text>
<polyline fill="none" stroke="#000000" points="269.5,-2158.5 269.5,-2204.5 "/>
<text text-anchor="middle" x="297.5" y="-2189.3" font-family="Times,serif" font-size="14.00" fill="#000000">input:</text>
<polyline fill="none" stroke="#000000" points="269.5,-2181.5 325.5,-2181.5 "/>
<text text-anchor="middle" x="297.5" y="-2166.3" font-family="Times,serif" font-size="14.00" fill="#000000">output:</text>
<polyline fill="none" stroke="#000000" points="325.5,-2158.5 325.5,-2204.5 "/>
<text text-anchor="middle" x="388.5" y="-2189.3" font-family="Times,serif" font-size="14.00" fill="#000000">(None, 64, 64, 128)</text>
<polyline fill="none" stroke="#000000" points="325.5,-2181.5 451.5,-2181.5 "/>
<text text-anchor="middle" x="388.5" y="-2166.3" font-family="Times,serif" font-size="14.00" fill="#000000">(None, 64, 64, 128)</text>
</g>
<!-- 48169072680&#45;&gt;48170246040 -->
<g id="edge6" class="edge">
<title>48169072680&#45;&gt;48170246040</title>
<path fill="none" stroke="#000000" d="M227.5,-2241.3799C227.5,-2233.1745 227.5,-2223.7679 227.5,-2214.8786"/>
<polygon fill="#000000" stroke="#000000" points="231.0001,-2214.784 227.5,-2204.784 224.0001,-2214.784 231.0001,-2214.784"/>
</g>
<!-- 48170348616 -->
<g id="node8" class="node">
<title>48170348616</title>
<polygon fill="none" stroke="#000000" points="76.5,-2075.5 76.5,-2121.5 378.5,-2121.5 378.5,-2075.5 76.5,-2075.5"/>
<text text-anchor="middle" x="136.5" y="-2094.8" font-family="Times,serif" font-size="14.00" fill="#000000">conv3_1: Conv2D</text>
<polyline fill="none" stroke="#000000" points="196.5,-2075.5 196.5,-2121.5 "/>
<text text-anchor="middle" x="224.5" y="-2106.3" font-family="Times,serif" font-size="14.00" fill="#000000">input:</text>
<polyline fill="none" stroke="#000000" points="196.5,-2098.5 252.5,-2098.5 "/>
<text text-anchor="middle" x="224.5" y="-2083.3" font-family="Times,serif" font-size="14.00" fill="#000000">output:</text>
<polyline fill="none" stroke="#000000" points="252.5,-2075.5 252.5,-2121.5 "/>
<text text-anchor="middle" x="315.5" y="-2106.3" font-family="Times,serif" font-size="14.00" fill="#000000">(None, 64, 64, 128)</text>
<polyline fill="none" stroke="#000000" points="252.5,-2098.5 378.5,-2098.5 "/>
<text text-anchor="middle" x="315.5" y="-2083.3" font-family="Times,serif" font-size="14.00" fill="#000000">(None, 64, 64, 256)</text>
</g>
<!-- 48170246040&#45;&gt;48170348616 -->
<g id="edge7" class="edge">
<title>48170246040&#45;&gt;48170348616</title>
<path fill="none" stroke="#000000" d="M227.5,-2158.3799C227.5,-2150.1745 227.5,-2140.7679 227.5,-2131.8786"/>
<polygon fill="#000000" stroke="#000000" points="231.0001,-2131.784 227.5,-2121.784 224.0001,-2131.784 231.0001,-2131.784"/>
</g>
<!-- 48171232336 -->
<g id="node9" class="node">
<title>48171232336</title>
<polygon fill="none" stroke="#000000" points="76.5,-1992.5 76.5,-2038.5 378.5,-2038.5 378.5,-1992.5 76.5,-1992.5"/>
<text text-anchor="middle" x="136.5" y="-2011.8" font-family="Times,serif" font-size="14.00" fill="#000000">conv3_2: Conv2D</text>
<polyline fill="none" stroke="#000000" points="196.5,-1992.5 196.5,-2038.5 "/>
<text text-anchor="middle" x="224.5" y="-2023.3" font-family="Times,serif" font-size="14.00" fill="#000000">input:</text>
<polyline fill="none" stroke="#000000" points="196.5,-2015.5 252.5,-2015.5 "/>
<text text-anchor="middle" x="224.5" y="-2000.3" font-family="Times,serif" font-size="14.00" fill="#000000">output:</text>
<polyline fill="none" stroke="#000000" points="252.5,-1992.5 252.5,-2038.5 "/>
<text text-anchor="middle" x="315.5" y="-2023.3" font-family="Times,serif" font-size="14.00" fill="#000000">(None, 64, 64, 256)</text>
<polyline fill="none" stroke="#000000" points="252.5,-2015.5 378.5,-2015.5 "/>
<text text-anchor="middle" x="315.5" y="-2000.3" font-family="Times,serif" font-size="14.00" fill="#000000">(None, 64, 64, 256)</text>
</g>
<!-- 48170348616&#45;&gt;48171232336 -->
<g id="edge8" class="edge">
<title>48170348616&#45;&gt;48171232336</title>
<path fill="none" stroke="#000000" d="M227.5,-2075.3799C227.5,-2067.1745 227.5,-2057.7679 227.5,-2048.8786"/>
<polygon fill="#000000" stroke="#000000" points="231.0001,-2048.784 227.5,-2038.784 224.0001,-2048.784 231.0001,-2048.784"/>
</g>
<!-- 48171744168 -->
<g id="node10" class="node">
<title>48171744168</title>
<polygon fill="none" stroke="#000000" points="76.5,-1909.5 76.5,-1955.5 378.5,-1955.5 378.5,-1909.5 76.5,-1909.5"/>
<text text-anchor="middle" x="136.5" y="-1928.8" font-family="Times,serif" font-size="14.00" fill="#000000">conv3_3: Conv2D</text>
<polyline fill="none" stroke="#000000" points="196.5,-1909.5 196.5,-1955.5 "/>
<text text-anchor="middle" x="224.5" y="-1940.3" font-family="Times,serif" font-size="14.00" fill="#000000">input:</text>
<polyline fill="none" stroke="#000000" points="196.5,-1932.5 252.5,-1932.5 "/>
<text text-anchor="middle" x="224.5" y="-1917.3" font-family="Times,serif" font-size="14.00" fill="#000000">output:</text>
<polyline fill="none" stroke="#000000" points="252.5,-1909.5 252.5,-1955.5 "/>
<text text-anchor="middle" x="315.5" y="-1940.3" font-family="Times,serif" font-size="14.00" fill="#000000">(None, 64, 64, 256)</text>
<polyline fill="none" stroke="#000000" points="252.5,-1932.5 378.5,-1932.5 "/>
<text text-anchor="middle" x="315.5" y="-1917.3" font-family="Times,serif" font-size="14.00" fill="#000000">(None, 32, 32, 256)</text>
</g>
<!-- 48171232336&#45;&gt;48171744168 -->
<g id="edge9" class="edge">
<title>48171232336&#45;&gt;48171744168</title>
<path fill="none" stroke="#000000" d="M227.5,-1992.3799C227.5,-1984.1745 227.5,-1974.7679 227.5,-1965.8786"/>
<polygon fill="#000000" stroke="#000000" points="231.0001,-1965.784 227.5,-1955.784 224.0001,-1965.784 231.0001,-1965.784"/>
</g>
<!-- 48171937072 -->
<g id="node11" class="node">
<title>48171937072</title>
<polygon fill="none" stroke="#000000" points="3.5,-1826.5 3.5,-1872.5 451.5,-1872.5 451.5,-1826.5 3.5,-1826.5"/>
<text text-anchor="middle" x="136.5" y="-1845.8" font-family="Times,serif" font-size="14.00" fill="#000000">batch_normalization_3: BatchNormalization</text>
<polyline fill="none" stroke="#000000" points="269.5,-1826.5 269.5,-1872.5 "/>
<text text-anchor="middle" x="297.5" y="-1857.3" font-family="Times,serif" font-size="14.00" fill="#000000">input:</text>
<polyline fill="none" stroke="#000000" points="269.5,-1849.5 325.5,-1849.5 "/>
<text text-anchor="middle" x="297.5" y="-1834.3" font-family="Times,serif" font-size="14.00" fill="#000000">output:</text>
<polyline fill="none" stroke="#000000" points="325.5,-1826.5 325.5,-1872.5 "/>
<text text-anchor="middle" x="388.5" y="-1857.3" font-family="Times,serif" font-size="14.00" fill="#000000">(None, 32, 32, 256)</text>
<polyline fill="none" stroke="#000000" points="325.5,-1849.5 451.5,-1849.5 "/>
<text text-anchor="middle" x="388.5" y="-1834.3" font-family="Times,serif" font-size="14.00" fill="#000000">(None, 32, 32, 256)</text>
</g>
<!-- 48171744168&#45;&gt;48171937072 -->
<g id="edge10" class="edge">
<title>48171744168&#45;&gt;48171937072</title>
<path fill="none" stroke="#000000" d="M227.5,-1909.3799C227.5,-1901.1745 227.5,-1891.7679 227.5,-1882.8786"/>
<polygon fill="#000000" stroke="#000000" points="231.0001,-1882.784 227.5,-1872.784 224.0001,-1882.784 231.0001,-1882.784"/>
</g>
<!-- 48171937464 -->
<g id="node12" class="node">
<title>48171937464</title>
<polygon fill="none" stroke="#000000" points="76.5,-1743.5 76.5,-1789.5 378.5,-1789.5 378.5,-1743.5 76.5,-1743.5"/>
<text text-anchor="middle" x="136.5" y="-1762.8" font-family="Times,serif" font-size="14.00" fill="#000000">conv4_1: Conv2D</text>
<polyline fill="none" stroke="#000000" points="196.5,-1743.5 196.5,-1789.5 "/>
<text text-anchor="middle" x="224.5" y="-1774.3" font-family="Times,serif" font-size="14.00" fill="#000000">input:</text>
<polyline fill="none" stroke="#000000" points="196.5,-1766.5 252.5,-1766.5 "/>
<text text-anchor="middle" x="224.5" y="-1751.3" font-family="Times,serif" font-size="14.00" fill="#000000">output:</text>
<polyline fill="none" stroke="#000000" points="252.5,-1743.5 252.5,-1789.5 "/>
<text text-anchor="middle" x="315.5" y="-1774.3" font-family="Times,serif" font-size="14.00" fill="#000000">(None, 32, 32, 256)</text>
<polyline fill="none" stroke="#000000" points="252.5,-1766.5 378.5,-1766.5 "/>
<text text-anchor="middle" x="315.5" y="-1751.3" font-family="Times,serif" font-size="14.00" fill="#000000">(None, 32, 32, 512)</text>
</g>
<!-- 48171937072&#45;&gt;48171937464 -->
<g id="edge11" class="edge">
<title>48171937072&#45;&gt;48171937464</title>
<path fill="none" stroke="#000000" d="M227.5,-1826.3799C227.5,-1818.1745 227.5,-1808.7679 227.5,-1799.8786"/>
<polygon fill="#000000" stroke="#000000" points="231.0001,-1799.784 227.5,-1789.784 224.0001,-1799.784 231.0001,-1799.784"/>
</g>
<!-- 48172268232 -->
<g id="node13" class="node">
<title>48172268232</title>
<polygon fill="none" stroke="#000000" points="76.5,-1660.5 76.5,-1706.5 378.5,-1706.5 378.5,-1660.5 76.5,-1660.5"/>
<text text-anchor="middle" x="136.5" y="-1679.8" font-family="Times,serif" font-size="14.00" fill="#000000">conv4_2: Conv2D</text>
<polyline fill="none" stroke="#000000" points="196.5,-1660.5 196.5,-1706.5 "/>
<text text-anchor="middle" x="224.5" y="-1691.3" font-family="Times,serif" font-size="14.00" fill="#000000">input:</text>
<polyline fill="none" stroke="#000000" points="196.5,-1683.5 252.5,-1683.5 "/>
<text text-anchor="middle" x="224.5" y="-1668.3" font-family="Times,serif" font-size="14.00" fill="#000000">output:</text>
<polyline fill="none" stroke="#000000" points="252.5,-1660.5 252.5,-1706.5 "/>
<text text-anchor="middle" x="315.5" y="-1691.3" font-family="Times,serif" font-size="14.00" fill="#000000">(None, 32, 32, 512)</text>
<polyline fill="none" stroke="#000000" points="252.5,-1683.5 378.5,-1683.5 "/>
<text text-anchor="middle" x="315.5" y="-1668.3" font-family="Times,serif" font-size="14.00" fill="#000000">(None, 32, 32, 512)</text>
</g>
<!-- 48171937464&#45;&gt;48172268232 -->
<g id="edge12" class="edge">
<title>48171937464&#45;&gt;48172268232</title>
<path fill="none" stroke="#000000" d="M227.5,-1743.3799C227.5,-1735.1745 227.5,-1725.7679 227.5,-1716.8786"/>
<polygon fill="#000000" stroke="#000000" points="231.0001,-1716.784 227.5,-1706.784 224.0001,-1716.784 231.0001,-1716.784"/>
</g>
<!-- 48173359056 -->
<g id="node14" class="node">
<title>48173359056</title>
<polygon fill="none" stroke="#000000" points="76.5,-1577.5 76.5,-1623.5 378.5,-1623.5 378.5,-1577.5 76.5,-1577.5"/>
<text text-anchor="middle" x="136.5" y="-1596.8" font-family="Times,serif" font-size="14.00" fill="#000000">conv4_3: Conv2D</text>
<polyline fill="none" stroke="#000000" points="196.5,-1577.5 196.5,-1623.5 "/>
<text text-anchor="middle" x="224.5" y="-1608.3" font-family="Times,serif" font-size="14.00" fill="#000000">input:</text>
<polyline fill="none" stroke="#000000" points="196.5,-1600.5 252.5,-1600.5 "/>
<text text-anchor="middle" x="224.5" y="-1585.3" font-family="Times,serif" font-size="14.00" fill="#000000">output:</text>
<polyline fill="none" stroke="#000000" points="252.5,-1577.5 252.5,-1623.5 "/>
<text text-anchor="middle" x="315.5" y="-1608.3" font-family="Times,serif" font-size="14.00" fill="#000000">(None, 32, 32, 512)</text>
<polyline fill="none" stroke="#000000" points="252.5,-1600.5 378.5,-1600.5 "/>
<text text-anchor="middle" x="315.5" y="-1585.3" font-family="Times,serif" font-size="14.00" fill="#000000">(None, 32, 32, 512)</text>
</g>
<!-- 48172268232&#45;&gt;48173359056 -->
<g id="edge13" class="edge">
<title>48172268232&#45;&gt;48173359056</title>
<path fill="none" stroke="#000000" d="M227.5,-1660.3799C227.5,-1652.1745 227.5,-1642.7679 227.5,-1633.8786"/>
<polygon fill="#000000" stroke="#000000" points="231.0001,-1633.784 227.5,-1623.784 224.0001,-1633.784 231.0001,-1633.784"/>
</g>
<!-- 48173659192 -->
<g id="node15" class="node">
<title>48173659192</title>
<polygon fill="none" stroke="#000000" points="3.5,-1494.5 3.5,-1540.5 451.5,-1540.5 451.5,-1494.5 3.5,-1494.5"/>
<text text-anchor="middle" x="136.5" y="-1513.8" font-family="Times,serif" font-size="14.00" fill="#000000">batch_normalization_4: BatchNormalization</text>
<polyline fill="none" stroke="#000000" points="269.5,-1494.5 269.5,-1540.5 "/>
<text text-anchor="middle" x="297.5" y="-1525.3" font-family="Times,serif" font-size="14.00" fill="#000000">input:</text>
<polyline fill="none" stroke="#000000" points="269.5,-1517.5 325.5,-1517.5 "/>
<text text-anchor="middle" x="297.5" y="-1502.3" font-family="Times,serif" font-size="14.00" fill="#000000">output:</text>
<polyline fill="none" stroke="#000000" points="325.5,-1494.5 325.5,-1540.5 "/>
<text text-anchor="middle" x="388.5" y="-1525.3" font-family="Times,serif" font-size="14.00" fill="#000000">(None, 32, 32, 512)</text>
<polyline fill="none" stroke="#000000" points="325.5,-1517.5 451.5,-1517.5 "/>
<text text-anchor="middle" x="388.5" y="-1502.3" font-family="Times,serif" font-size="14.00" fill="#000000">(None, 32, 32, 512)</text>
</g>
<!-- 48173359056&#45;&gt;48173659192 -->
<g id="edge14" class="edge">
<title>48173359056&#45;&gt;48173659192</title>
<path fill="none" stroke="#000000" d="M227.5,-1577.3799C227.5,-1569.1745 227.5,-1559.7679 227.5,-1550.8786"/>
<polygon fill="#000000" stroke="#000000" points="231.0001,-1550.784 227.5,-1540.784 224.0001,-1550.784 231.0001,-1550.784"/>
</g>
<!-- 48173659304 -->
<g id="node16" class="node">
<title>48173659304</title>
<polygon fill="none" stroke="#000000" points="76.5,-1411.5 76.5,-1457.5 378.5,-1457.5 378.5,-1411.5 76.5,-1411.5"/>
<text text-anchor="middle" x="136.5" y="-1430.8" font-family="Times,serif" font-size="14.00" fill="#000000">conv5_1: Conv2D</text>
<polyline fill="none" stroke="#000000" points="196.5,-1411.5 196.5,-1457.5 "/>
<text text-anchor="middle" x="224.5" y="-1442.3" font-family="Times,serif" font-size="14.00" fill="#000000">input:</text>
<polyline fill="none" stroke="#000000" points="196.5,-1434.5 252.5,-1434.5 "/>
<text text-anchor="middle" x="224.5" y="-1419.3" font-family="Times,serif" font-size="14.00" fill="#000000">output:</text>
<polyline fill="none" stroke="#000000" points="252.5,-1411.5 252.5,-1457.5 "/>
<text text-anchor="middle" x="315.5" y="-1442.3" font-family="Times,serif" font-size="14.00" fill="#000000">(None, 32, 32, 512)</text>
<polyline fill="none" stroke="#000000" points="252.5,-1434.5 378.5,-1434.5 "/>
<text text-anchor="middle" x="315.5" y="-1419.3" font-family="Times,serif" font-size="14.00" fill="#000000">(None, 32, 32, 512)</text>
</g>
<!-- 48173659192&#45;&gt;48173659304 -->
<g id="edge15" class="edge">
<title>48173659192&#45;&gt;48173659304</title>
<path fill="none" stroke="#000000" d="M227.5,-1494.3799C227.5,-1486.1745 227.5,-1476.7679 227.5,-1467.8786"/>
<polygon fill="#000000" stroke="#000000" points="231.0001,-1467.784 227.5,-1457.784 224.0001,-1467.784 231.0001,-1467.784"/>
</g>
<!-- 48173963584 -->
<g id="node17" class="node">
<title>48173963584</title>
<polygon fill="none" stroke="#000000" points="76.5,-1328.5 76.5,-1374.5 378.5,-1374.5 378.5,-1328.5 76.5,-1328.5"/>
<text text-anchor="middle" x="136.5" y="-1347.8" font-family="Times,serif" font-size="14.00" fill="#000000">conv5_2: Conv2D</text>
<polyline fill="none" stroke="#000000" points="196.5,-1328.5 196.5,-1374.5 "/>
<text text-anchor="middle" x="224.5" y="-1359.3" font-family="Times,serif" font-size="14.00" fill="#000000">input:</text>
<polyline fill="none" stroke="#000000" points="196.5,-1351.5 252.5,-1351.5 "/>
<text text-anchor="middle" x="224.5" y="-1336.3" font-family="Times,serif" font-size="14.00" fill="#000000">output:</text>
<polyline fill="none" stroke="#000000" points="252.5,-1328.5 252.5,-1374.5 "/>
<text text-anchor="middle" x="315.5" y="-1359.3" font-family="Times,serif" font-size="14.00" fill="#000000">(None, 32, 32, 512)</text>
<polyline fill="none" stroke="#000000" points="252.5,-1351.5 378.5,-1351.5 "/>
<text text-anchor="middle" x="315.5" y="-1336.3" font-family="Times,serif" font-size="14.00" fill="#000000">(None, 32, 32, 512)</text>
</g>
<!-- 48173659304&#45;&gt;48173963584 -->
<g id="edge16" class="edge">
<title>48173659304&#45;&gt;48173963584</title>
<path fill="none" stroke="#000000" d="M227.5,-1411.3799C227.5,-1403.1745 227.5,-1393.7679 227.5,-1384.8786"/>
<polygon fill="#000000" stroke="#000000" points="231.0001,-1384.784 227.5,-1374.784 224.0001,-1384.784 231.0001,-1384.784"/>
</g>
<!-- 48175155352 -->
<g id="node18" class="node">
<title>48175155352</title>
<polygon fill="none" stroke="#000000" points="76.5,-1245.5 76.5,-1291.5 378.5,-1291.5 378.5,-1245.5 76.5,-1245.5"/>
<text text-anchor="middle" x="136.5" y="-1264.8" font-family="Times,serif" font-size="14.00" fill="#000000">conv5_3: Conv2D</text>
<polyline fill="none" stroke="#000000" points="196.5,-1245.5 196.5,-1291.5 "/>
<text text-anchor="middle" x="224.5" y="-1276.3" font-family="Times,serif" font-size="14.00" fill="#000000">input:</text>
<polyline fill="none" stroke="#000000" points="196.5,-1268.5 252.5,-1268.5 "/>
<text text-anchor="middle" x="224.5" y="-1253.3" font-family="Times,serif" font-size="14.00" fill="#000000">output:</text>
<polyline fill="none" stroke="#000000" points="252.5,-1245.5 252.5,-1291.5 "/>
<text text-anchor="middle" x="315.5" y="-1276.3" font-family="Times,serif" font-size="14.00" fill="#000000">(None, 32, 32, 512)</text>
<polyline fill="none" stroke="#000000" points="252.5,-1268.5 378.5,-1268.5 "/>
<text text-anchor="middle" x="315.5" y="-1253.3" font-family="Times,serif" font-size="14.00" fill="#000000">(None, 32, 32, 512)</text>
</g>
<!-- 48173963584&#45;&gt;48175155352 -->
<g id="edge17" class="edge">
<title>48173963584&#45;&gt;48175155352</title>
<path fill="none" stroke="#000000" d="M227.5,-1328.3799C227.5,-1320.1745 227.5,-1310.7679 227.5,-1301.8786"/>
<polygon fill="#000000" stroke="#000000" points="231.0001,-1301.784 227.5,-1291.784 224.0001,-1301.784 231.0001,-1301.784"/>
</g>
<!-- 48175475680 -->
<g id="node19" class="node">
<title>48175475680</title>
<polygon fill="none" stroke="#000000" points="3.5,-1162.5 3.5,-1208.5 451.5,-1208.5 451.5,-1162.5 3.5,-1162.5"/>
<text text-anchor="middle" x="136.5" y="-1181.8" font-family="Times,serif" font-size="14.00" fill="#000000">batch_normalization_5: BatchNormalization</text>
<polyline fill="none" stroke="#000000" points="269.5,-1162.5 269.5,-1208.5 "/>
<text text-anchor="middle" x="297.5" y="-1193.3" font-family="Times,serif" font-size="14.00" fill="#000000">input:</text>
<polyline fill="none" stroke="#000000" points="269.5,-1185.5 325.5,-1185.5 "/>
<text text-anchor="middle" x="297.5" y="-1170.3" font-family="Times,serif" font-size="14.00" fill="#000000">output:</text>
<polyline fill="none" stroke="#000000" points="325.5,-1162.5 325.5,-1208.5 "/>
<text text-anchor="middle" x="388.5" y="-1193.3" font-family="Times,serif" font-size="14.00" fill="#000000">(None, 32, 32, 512)</text>
<polyline fill="none" stroke="#000000" points="325.5,-1185.5 451.5,-1185.5 "/>
<text text-anchor="middle" x="388.5" y="-1170.3" font-family="Times,serif" font-size="14.00" fill="#000000">(None, 32, 32, 512)</text>
</g>
<!-- 48175155352&#45;&gt;48175475680 -->
<g id="edge18" class="edge">
<title>48175155352&#45;&gt;48175475680</title>
<path fill="none" stroke="#000000" d="M227.5,-1245.3799C227.5,-1237.1745 227.5,-1227.7679 227.5,-1218.8786"/>
<polygon fill="#000000" stroke="#000000" points="231.0001,-1218.784 227.5,-1208.784 224.0001,-1218.784 231.0001,-1218.784"/>
</g>
<!-- 48175476016 -->
<g id="node20" class="node">
<title>48175476016</title>
<polygon fill="none" stroke="#000000" points="76.5,-1079.5 76.5,-1125.5 378.5,-1125.5 378.5,-1079.5 76.5,-1079.5"/>
<text text-anchor="middle" x="136.5" y="-1098.8" font-family="Times,serif" font-size="14.00" fill="#000000">conv6_1: Conv2D</text>
<polyline fill="none" stroke="#000000" points="196.5,-1079.5 196.5,-1125.5 "/>
<text text-anchor="middle" x="224.5" y="-1110.3" font-family="Times,serif" font-size="14.00" fill="#000000">input:</text>
<polyline fill="none" stroke="#000000" points="196.5,-1102.5 252.5,-1102.5 "/>
<text text-anchor="middle" x="224.5" y="-1087.3" font-family="Times,serif" font-size="14.00" fill="#000000">output:</text>
<polyline fill="none" stroke="#000000" points="252.5,-1079.5 252.5,-1125.5 "/>
<text text-anchor="middle" x="315.5" y="-1110.3" font-family="Times,serif" font-size="14.00" fill="#000000">(None, 32, 32, 512)</text>
<polyline fill="none" stroke="#000000" points="252.5,-1102.5 378.5,-1102.5 "/>
<text text-anchor="middle" x="315.5" y="-1087.3" font-family="Times,serif" font-size="14.00" fill="#000000">(None, 32, 32, 512)</text>
</g>
<!-- 48175475680&#45;&gt;48175476016 -->
<g id="edge19" class="edge">
<title>48175475680&#45;&gt;48175476016</title>
<path fill="none" stroke="#000000" d="M227.5,-1162.3799C227.5,-1154.1745 227.5,-1144.7679 227.5,-1135.8786"/>
<polygon fill="#000000" stroke="#000000" points="231.0001,-1135.784 227.5,-1125.784 224.0001,-1135.784 231.0001,-1135.784"/>
</g>
<!-- 48176352728 -->
<g id="node21" class="node">
<title>48176352728</title>
<polygon fill="none" stroke="#000000" points="76.5,-996.5 76.5,-1042.5 378.5,-1042.5 378.5,-996.5 76.5,-996.5"/>
<text text-anchor="middle" x="136.5" y="-1015.8" font-family="Times,serif" font-size="14.00" fill="#000000">conv6_2: Conv2D</text>
<polyline fill="none" stroke="#000000" points="196.5,-996.5 196.5,-1042.5 "/>
<text text-anchor="middle" x="224.5" y="-1027.3" font-family="Times,serif" font-size="14.00" fill="#000000">input:</text>
<polyline fill="none" stroke="#000000" points="196.5,-1019.5 252.5,-1019.5 "/>
<text text-anchor="middle" x="224.5" y="-1004.3" font-family="Times,serif" font-size="14.00" fill="#000000">output:</text>
<polyline fill="none" stroke="#000000" points="252.5,-996.5 252.5,-1042.5 "/>
<text text-anchor="middle" x="315.5" y="-1027.3" font-family="Times,serif" font-size="14.00" fill="#000000">(None, 32, 32, 512)</text>
<polyline fill="none" stroke="#000000" points="252.5,-1019.5 378.5,-1019.5 "/>
<text text-anchor="middle" x="315.5" y="-1004.3" font-family="Times,serif" font-size="14.00" fill="#000000">(None, 32, 32, 512)</text>
</g>
<!-- 48175476016&#45;&gt;48176352728 -->
<g id="edge20" class="edge">
<title>48175476016&#45;&gt;48176352728</title>
<path fill="none" stroke="#000000" d="M227.5,-1079.3799C227.5,-1071.1745 227.5,-1061.7679 227.5,-1052.8786"/>
<polygon fill="#000000" stroke="#000000" points="231.0001,-1052.784 227.5,-1042.784 224.0001,-1052.784 231.0001,-1052.784"/>
</g>
<!-- 48177214520 -->
<g id="node22" class="node">
<title>48177214520</title>
<polygon fill="none" stroke="#000000" points="76.5,-913.5 76.5,-959.5 378.5,-959.5 378.5,-913.5 76.5,-913.5"/>
<text text-anchor="middle" x="136.5" y="-932.8" font-family="Times,serif" font-size="14.00" fill="#000000">conv6_3: Conv2D</text>
<polyline fill="none" stroke="#000000" points="196.5,-913.5 196.5,-959.5 "/>
<text text-anchor="middle" x="224.5" y="-944.3" font-family="Times,serif" font-size="14.00" fill="#000000">input:</text>
<polyline fill="none" stroke="#000000" points="196.5,-936.5 252.5,-936.5 "/>
<text text-anchor="middle" x="224.5" y="-921.3" font-family="Times,serif" font-size="14.00" fill="#000000">output:</text>
<polyline fill="none" stroke="#000000" points="252.5,-913.5 252.5,-959.5 "/>
<text text-anchor="middle" x="315.5" y="-944.3" font-family="Times,serif" font-size="14.00" fill="#000000">(None, 32, 32, 512)</text>
<polyline fill="none" stroke="#000000" points="252.5,-936.5 378.5,-936.5 "/>
<text text-anchor="middle" x="315.5" y="-921.3" font-family="Times,serif" font-size="14.00" fill="#000000">(None, 32, 32, 512)</text>
</g>
<!-- 48176352728&#45;&gt;48177214520 -->
<g id="edge21" class="edge">
<title>48176352728&#45;&gt;48177214520</title>
<path fill="none" stroke="#000000" d="M227.5,-996.3799C227.5,-988.1745 227.5,-978.7679 227.5,-969.8786"/>
<polygon fill="#000000" stroke="#000000" points="231.0001,-969.784 227.5,-959.784 224.0001,-969.784 231.0001,-969.784"/>
</g>
<!-- 48177493440 -->
<g id="node23" class="node">
<title>48177493440</title>
<polygon fill="none" stroke="#000000" points="3.5,-830.5 3.5,-876.5 451.5,-876.5 451.5,-830.5 3.5,-830.5"/>
<text text-anchor="middle" x="136.5" y="-849.8" font-family="Times,serif" font-size="14.00" fill="#000000">batch_normalization_6: BatchNormalization</text>
<polyline fill="none" stroke="#000000" points="269.5,-830.5 269.5,-876.5 "/>
<text text-anchor="middle" x="297.5" y="-861.3" font-family="Times,serif" font-size="14.00" fill="#000000">input:</text>
<polyline fill="none" stroke="#000000" points="269.5,-853.5 325.5,-853.5 "/>
<text text-anchor="middle" x="297.5" y="-838.3" font-family="Times,serif" font-size="14.00" fill="#000000">output:</text>
<polyline fill="none" stroke="#000000" points="325.5,-830.5 325.5,-876.5 "/>
<text text-anchor="middle" x="388.5" y="-861.3" font-family="Times,serif" font-size="14.00" fill="#000000">(None, 32, 32, 512)</text>
<polyline fill="none" stroke="#000000" points="325.5,-853.5 451.5,-853.5 "/>
<text text-anchor="middle" x="388.5" y="-838.3" font-family="Times,serif" font-size="14.00" fill="#000000">(None, 32, 32, 512)</text>
</g>
<!-- 48177214520&#45;&gt;48177493440 -->
<g id="edge22" class="edge">
<title>48177214520&#45;&gt;48177493440</title>
<path fill="none" stroke="#000000" d="M227.5,-913.3799C227.5,-905.1745 227.5,-895.7679 227.5,-886.8786"/>
<polygon fill="#000000" stroke="#000000" points="231.0001,-886.784 227.5,-876.784 224.0001,-886.784 231.0001,-886.784"/>
</g>
<!-- 48177493384 -->
<g id="node24" class="node">
<title>48177493384</title>
<polygon fill="none" stroke="#000000" points="76.5,-747.5 76.5,-793.5 378.5,-793.5 378.5,-747.5 76.5,-747.5"/>
<text text-anchor="middle" x="136.5" y="-766.8" font-family="Times,serif" font-size="14.00" fill="#000000">conv7_1: Conv2D</text>
<polyline fill="none" stroke="#000000" points="196.5,-747.5 196.5,-793.5 "/>
<text text-anchor="middle" x="224.5" y="-778.3" font-family="Times,serif" font-size="14.00" fill="#000000">input:</text>
<polyline fill="none" stroke="#000000" points="196.5,-770.5 252.5,-770.5 "/>
<text text-anchor="middle" x="224.5" y="-755.3" font-family="Times,serif" font-size="14.00" fill="#000000">output:</text>
<polyline fill="none" stroke="#000000" points="252.5,-747.5 252.5,-793.5 "/>
<text text-anchor="middle" x="315.5" y="-778.3" font-family="Times,serif" font-size="14.00" fill="#000000">(None, 32, 32, 512)</text>
<polyline fill="none" stroke="#000000" points="252.5,-770.5 378.5,-770.5 "/>
<text text-anchor="middle" x="315.5" y="-755.3" font-family="Times,serif" font-size="14.00" fill="#000000">(None, 32, 32, 256)</text>
</g>
<!-- 48177493440&#45;&gt;48177493384 -->
<g id="edge23" class="edge">
<title>48177493440&#45;&gt;48177493384</title>
<path fill="none" stroke="#000000" d="M227.5,-830.3799C227.5,-822.1745 227.5,-812.7679 227.5,-803.8786"/>
<polygon fill="#000000" stroke="#000000" points="231.0001,-803.784 227.5,-793.784 224.0001,-803.784 231.0001,-803.784"/>
</g>
<!-- 48178383112 -->
<g id="node25" class="node">
<title>48178383112</title>
<polygon fill="none" stroke="#000000" points="76.5,-664.5 76.5,-710.5 378.5,-710.5 378.5,-664.5 76.5,-664.5"/>
<text text-anchor="middle" x="136.5" y="-683.8" font-family="Times,serif" font-size="14.00" fill="#000000">conv7_2: Conv2D</text>
<polyline fill="none" stroke="#000000" points="196.5,-664.5 196.5,-710.5 "/>
<text text-anchor="middle" x="224.5" y="-695.3" font-family="Times,serif" font-size="14.00" fill="#000000">input:</text>
<polyline fill="none" stroke="#000000" points="196.5,-687.5 252.5,-687.5 "/>
<text text-anchor="middle" x="224.5" y="-672.3" font-family="Times,serif" font-size="14.00" fill="#000000">output:</text>
<polyline fill="none" stroke="#000000" points="252.5,-664.5 252.5,-710.5 "/>
<text text-anchor="middle" x="315.5" y="-695.3" font-family="Times,serif" font-size="14.00" fill="#000000">(None, 32, 32, 256)</text>
<polyline fill="none" stroke="#000000" points="252.5,-687.5 378.5,-687.5 "/>
<text text-anchor="middle" x="315.5" y="-672.3" font-family="Times,serif" font-size="14.00" fill="#000000">(None, 32, 32, 256)</text>
</g>
<!-- 48177493384&#45;&gt;48178383112 -->
<g id="edge24" class="edge">
<title>48177493384&#45;&gt;48178383112</title>
<path fill="none" stroke="#000000" d="M227.5,-747.3799C227.5,-739.1745 227.5,-729.7679 227.5,-720.8786"/>
<polygon fill="#000000" stroke="#000000" points="231.0001,-720.784 227.5,-710.784 224.0001,-720.784 231.0001,-720.784"/>
</g>
<!-- 48179144016 -->
<g id="node26" class="node">
<title>48179144016</title>
<polygon fill="none" stroke="#000000" points="76.5,-581.5 76.5,-627.5 378.5,-627.5 378.5,-581.5 76.5,-581.5"/>
<text text-anchor="middle" x="136.5" y="-600.8" font-family="Times,serif" font-size="14.00" fill="#000000">conv7_3: Conv2D</text>
<polyline fill="none" stroke="#000000" points="196.5,-581.5 196.5,-627.5 "/>
<text text-anchor="middle" x="224.5" y="-612.3" font-family="Times,serif" font-size="14.00" fill="#000000">input:</text>
<polyline fill="none" stroke="#000000" points="196.5,-604.5 252.5,-604.5 "/>
<text text-anchor="middle" x="224.5" y="-589.3" font-family="Times,serif" font-size="14.00" fill="#000000">output:</text>
<polyline fill="none" stroke="#000000" points="252.5,-581.5 252.5,-627.5 "/>
<text text-anchor="middle" x="315.5" y="-612.3" font-family="Times,serif" font-size="14.00" fill="#000000">(None, 32, 32, 256)</text>
<polyline fill="none" stroke="#000000" points="252.5,-604.5 378.5,-604.5 "/>
<text text-anchor="middle" x="315.5" y="-589.3" font-family="Times,serif" font-size="14.00" fill="#000000">(None, 32, 32, 256)</text>
</g>
<!-- 48178383112&#45;&gt;48179144016 -->
<g id="edge25" class="edge">
<title>48178383112&#45;&gt;48179144016</title>
<path fill="none" stroke="#000000" d="M227.5,-664.3799C227.5,-656.1745 227.5,-646.7679 227.5,-637.8786"/>
<polygon fill="#000000" stroke="#000000" points="231.0001,-637.784 227.5,-627.784 224.0001,-637.784 231.0001,-637.784"/>
</g>
<!-- 48179353696 -->
<g id="node27" class="node">
<title>48179353696</title>
<polygon fill="none" stroke="#000000" points="3.5,-498.5 3.5,-544.5 451.5,-544.5 451.5,-498.5 3.5,-498.5"/>
<text text-anchor="middle" x="136.5" y="-517.8" font-family="Times,serif" font-size="14.00" fill="#000000">batch_normalization_7: BatchNormalization</text>
<polyline fill="none" stroke="#000000" points="269.5,-498.5 269.5,-544.5 "/>
<text text-anchor="middle" x="297.5" y="-529.3" font-family="Times,serif" font-size="14.00" fill="#000000">input:</text>
<polyline fill="none" stroke="#000000" points="269.5,-521.5 325.5,-521.5 "/>
<text text-anchor="middle" x="297.5" y="-506.3" font-family="Times,serif" font-size="14.00" fill="#000000">output:</text>
<polyline fill="none" stroke="#000000" points="325.5,-498.5 325.5,-544.5 "/>
<text text-anchor="middle" x="388.5" y="-529.3" font-family="Times,serif" font-size="14.00" fill="#000000">(None, 32, 32, 256)</text>
<polyline fill="none" stroke="#000000" points="325.5,-521.5 451.5,-521.5 "/>
<text text-anchor="middle" x="388.5" y="-506.3" font-family="Times,serif" font-size="14.00" fill="#000000">(None, 32, 32, 256)</text>
</g>
<!-- 48179144016&#45;&gt;48179353696 -->
<g id="edge26" class="edge">
<title>48179144016&#45;&gt;48179353696</title>
<path fill="none" stroke="#000000" d="M227.5,-581.3799C227.5,-573.1745 227.5,-563.7679 227.5,-554.8786"/>
<polygon fill="#000000" stroke="#000000" points="231.0001,-554.784 227.5,-544.784 224.0001,-554.784 231.0001,-554.784"/>
</g>
<!-- 48179353808 -->
<g id="node28" class="node">
<title>48179353808</title>
<polygon fill="none" stroke="#000000" points="30.5,-415.5 30.5,-461.5 424.5,-461.5 424.5,-415.5 30.5,-415.5"/>
<text text-anchor="middle" x="136.5" y="-434.8" font-family="Times,serif" font-size="14.00" fill="#000000">up_sampling2d_1: UpSampling2D</text>
<polyline fill="none" stroke="#000000" points="242.5,-415.5 242.5,-461.5 "/>
<text text-anchor="middle" x="270.5" y="-446.3" font-family="Times,serif" font-size="14.00" fill="#000000">input:</text>
<polyline fill="none" stroke="#000000" points="242.5,-438.5 298.5,-438.5 "/>
<text text-anchor="middle" x="270.5" y="-423.3" font-family="Times,serif" font-size="14.00" fill="#000000">output:</text>
<polyline fill="none" stroke="#000000" points="298.5,-415.5 298.5,-461.5 "/>
<text text-anchor="middle" x="361.5" y="-446.3" font-family="Times,serif" font-size="14.00" fill="#000000">(None, 32, 32, 256)</text>
<polyline fill="none" stroke="#000000" points="298.5,-438.5 424.5,-438.5 "/>
<text text-anchor="middle" x="361.5" y="-423.3" font-family="Times,serif" font-size="14.00" fill="#000000">(None, 64, 64, 256)</text>
</g>
<!-- 48179353696&#45;&gt;48179353808 -->
<g id="edge27" class="edge">
<title>48179353696&#45;&gt;48179353808</title>
<path fill="none" stroke="#000000" d="M227.5,-498.3799C227.5,-490.1745 227.5,-480.7679 227.5,-471.8786"/>
<polygon fill="#000000" stroke="#000000" points="231.0001,-471.784 227.5,-461.784 224.0001,-471.784 231.0001,-471.784"/>
</g>
<!-- 48180352112 -->
<g id="node29" class="node">
<title>48180352112</title>
<polygon fill="none" stroke="#000000" points="76.5,-332.5 76.5,-378.5 378.5,-378.5 378.5,-332.5 76.5,-332.5"/>
<text text-anchor="middle" x="136.5" y="-351.8" font-family="Times,serif" font-size="14.00" fill="#000000">conv8_1: Conv2D</text>
<polyline fill="none" stroke="#000000" points="196.5,-332.5 196.5,-378.5 "/>
<text text-anchor="middle" x="224.5" y="-363.3" font-family="Times,serif" font-size="14.00" fill="#000000">input:</text>
<polyline fill="none" stroke="#000000" points="196.5,-355.5 252.5,-355.5 "/>
<text text-anchor="middle" x="224.5" y="-340.3" font-family="Times,serif" font-size="14.00" fill="#000000">output:</text>
<polyline fill="none" stroke="#000000" points="252.5,-332.5 252.5,-378.5 "/>
<text text-anchor="middle" x="315.5" y="-363.3" font-family="Times,serif" font-size="14.00" fill="#000000">(None, 64, 64, 256)</text>
<polyline fill="none" stroke="#000000" points="252.5,-355.5 378.5,-355.5 "/>
<text text-anchor="middle" x="315.5" y="-340.3" font-family="Times,serif" font-size="14.00" fill="#000000">(None, 64, 64, 128)</text>
</g>
<!-- 48179353808&#45;&gt;48180352112 -->
<g id="edge28" class="edge">
<title>48179353808&#45;&gt;48180352112</title>
<path fill="none" stroke="#000000" d="M227.5,-415.3799C227.5,-407.1745 227.5,-397.7679 227.5,-388.8786"/>
<polygon fill="#000000" stroke="#000000" points="231.0001,-388.784 227.5,-378.784 224.0001,-388.784 231.0001,-388.784"/>
</g>
<!-- 48180632432 -->
<g id="node30" class="node">
<title>48180632432</title>
<polygon fill="none" stroke="#000000" points="76.5,-249.5 76.5,-295.5 378.5,-295.5 378.5,-249.5 76.5,-249.5"/>
<text text-anchor="middle" x="136.5" y="-268.8" font-family="Times,serif" font-size="14.00" fill="#000000">conv8_2: Conv2D</text>
<polyline fill="none" stroke="#000000" points="196.5,-249.5 196.5,-295.5 "/>
<text text-anchor="middle" x="224.5" y="-280.3" font-family="Times,serif" font-size="14.00" fill="#000000">input:</text>
<polyline fill="none" stroke="#000000" points="196.5,-272.5 252.5,-272.5 "/>
<text text-anchor="middle" x="224.5" y="-257.3" font-family="Times,serif" font-size="14.00" fill="#000000">output:</text>
<polyline fill="none" stroke="#000000" points="252.5,-249.5 252.5,-295.5 "/>
<text text-anchor="middle" x="315.5" y="-280.3" font-family="Times,serif" font-size="14.00" fill="#000000">(None, 64, 64, 128)</text>
<polyline fill="none" stroke="#000000" points="252.5,-272.5 378.5,-272.5 "/>
<text text-anchor="middle" x="315.5" y="-257.3" font-family="Times,serif" font-size="14.00" fill="#000000">(None, 64, 64, 128)</text>
</g>
<!-- 48180352112&#45;&gt;48180632432 -->
<g id="edge29" class="edge">
<title>48180352112&#45;&gt;48180632432</title>
<path fill="none" stroke="#000000" d="M227.5,-332.3799C227.5,-324.1745 227.5,-314.7679 227.5,-305.8786"/>
<polygon fill="#000000" stroke="#000000" points="231.0001,-305.784 227.5,-295.784 224.0001,-305.784 231.0001,-305.784"/>
</g>
<!-- 48180841776 -->
<g id="node31" class="node">
<title>48180841776</title>
<polygon fill="none" stroke="#000000" points="76.5,-166.5 76.5,-212.5 378.5,-212.5 378.5,-166.5 76.5,-166.5"/>
<text text-anchor="middle" x="136.5" y="-185.8" font-family="Times,serif" font-size="14.00" fill="#000000">conv8_3: Conv2D</text>
<polyline fill="none" stroke="#000000" points="196.5,-166.5 196.5,-212.5 "/>
<text text-anchor="middle" x="224.5" y="-197.3" font-family="Times,serif" font-size="14.00" fill="#000000">input:</text>
<polyline fill="none" stroke="#000000" points="196.5,-189.5 252.5,-189.5 "/>
<text text-anchor="middle" x="224.5" y="-174.3" font-family="Times,serif" font-size="14.00" fill="#000000">output:</text>
<polyline fill="none" stroke="#000000" points="252.5,-166.5 252.5,-212.5 "/>
<text text-anchor="middle" x="315.5" y="-197.3" font-family="Times,serif" font-size="14.00" fill="#000000">(None, 64, 64, 128)</text>
<polyline fill="none" stroke="#000000" points="252.5,-189.5 378.5,-189.5 "/>
<text text-anchor="middle" x="315.5" y="-174.3" font-family="Times,serif" font-size="14.00" fill="#000000">(None, 64, 64, 128)</text>
</g>
<!-- 48180632432&#45;&gt;48180841776 -->
<g id="edge30" class="edge">
<title>48180632432&#45;&gt;48180841776</title>
<path fill="none" stroke="#000000" d="M227.5,-249.3799C227.5,-241.1745 227.5,-231.7679 227.5,-222.8786"/>
<polygon fill="#000000" stroke="#000000" points="231.0001,-222.784 227.5,-212.784 224.0001,-222.784 231.0001,-222.784"/>
</g>
<!-- 48181043040 -->
<g id="node32" class="node">
<title>48181043040</title>
<polygon fill="none" stroke="#000000" points="3.5,-83.5 3.5,-129.5 451.5,-129.5 451.5,-83.5 3.5,-83.5"/>
<text text-anchor="middle" x="136.5" y="-102.8" font-family="Times,serif" font-size="14.00" fill="#000000">batch_normalization_8: BatchNormalization</text>
<polyline fill="none" stroke="#000000" points="269.5,-83.5 269.5,-129.5 "/>
<text text-anchor="middle" x="297.5" y="-114.3" font-family="Times,serif" font-size="14.00" fill="#000000">input:</text>
<polyline fill="none" stroke="#000000" points="269.5,-106.5 325.5,-106.5 "/>
<text text-anchor="middle" x="297.5" y="-91.3" font-family="Times,serif" font-size="14.00" fill="#000000">output:</text>
<polyline fill="none" stroke="#000000" points="325.5,-83.5 325.5,-129.5 "/>
<text text-anchor="middle" x="388.5" y="-114.3" font-family="Times,serif" font-size="14.00" fill="#000000">(None, 64, 64, 128)</text>
<polyline fill="none" stroke="#000000" points="325.5,-106.5 451.5,-106.5 "/>
<text text-anchor="middle" x="388.5" y="-91.3" font-family="Times,serif" font-size="14.00" fill="#000000">(None, 64, 64, 128)</text>
</g>
<!-- 48180841776&#45;&gt;48181043040 -->
<g id="edge31" class="edge">
<title>48180841776&#45;&gt;48181043040</title>
<path fill="none" stroke="#000000" d="M227.5,-166.3799C227.5,-158.1745 227.5,-148.7679 227.5,-139.8786"/>
<polygon fill="#000000" stroke="#000000" points="231.0001,-139.784 227.5,-129.784 224.0001,-139.784 231.0001,-139.784"/>
</g>
<!-- 48181138208 -->
<g id="node33" class="node">
<title>48181138208</title>
<polygon fill="none" stroke="#000000" points="88.5,-.5 88.5,-46.5 366.5,-46.5 366.5,-.5 88.5,-.5"/>
<text text-anchor="middle" x="136.5" y="-19.8" font-family="Times,serif" font-size="14.00" fill="#000000">pred: Conv2D</text>
<polyline fill="none" stroke="#000000" points="184.5,-.5 184.5,-46.5 "/>
<text text-anchor="middle" x="212.5" y="-31.3" font-family="Times,serif" font-size="14.00" fill="#000000">input:</text>
<polyline fill="none" stroke="#000000" points="184.5,-23.5 240.5,-23.5 "/>
<text text-anchor="middle" x="212.5" y="-8.3" font-family="Times,serif" font-size="14.00" fill="#000000">output:</text>
<polyline fill="none" stroke="#000000" points="240.5,-.5 240.5,-46.5 "/>
<text text-anchor="middle" x="303.5" y="-31.3" font-family="Times,serif" font-size="14.00" fill="#000000">(None, 64, 64, 128)</text>
<polyline fill="none" stroke="#000000" points="240.5,-23.5 366.5,-23.5 "/>
<text text-anchor="middle" x="303.5" y="-8.3" font-family="Times,serif" font-size="14.00" fill="#000000">(None, 64, 64, 313)</text>
</g>
<!-- 48181043040&#45;&gt;48181138208 -->
<g id="edge32" class="edge">
<title>48181043040&#45;&gt;48181138208</title>
<path fill="none" stroke="#000000" d="M227.5,-83.3799C227.5,-75.1745 227.5,-65.7679 227.5,-56.8786"/>
<polygon fill="#000000" stroke="#000000" points="231.0001,-56.784 227.5,-46.784 224.0001,-56.784 231.0001,-56.784"/>
</g>
</g>
</svg>
